<svg width="944.07806" height="698.0858" xmlns="http://www.w3.org/2000/svg" data-name="Layer 1">
 <title>test22</title>
 <defs>
  <linearGradient y2="0" x2="0.5" y1="1" x1="0.5" id="svg_105">
   <stop stop-opacity="0.25" stop-color="gray" offset="0"/>
   <stop stop-opacity="0.12" stop-color="gray" offset="0.53514"/>
   <stop stop-opacity="0.1" stop-color="gray" offset="1"/>
  </linearGradient>
 </defs>
 <g>
  <title>Layer 1</title>
  <circle id="svg_1" fill="#ffffff" r="130" cy="273.146" cx="397"/>
  <path id="svg_2" fill="#3f3d56" d="m413.99997,381.14642c-72.23389,0 -131,-58.76661 -131,-131.00049s58.76611,-131 131,-131c72.2334,0 131,58.76611 131,131s-58.7666,131.00049 -131,131.00049zm0,-260.00049a129.00025,129.00025 0 1 0 129,129a129.14608,129.14608 0 0 0 -129,-129.00003l0,0.00003z"/>
  <path id="svg_3" fill="#3f3d56" d="m811.00003,441.00049l-811,0l0,-441.00049l811,0l0,441.00049zm-809,-2l807,0l0,-437.00049l-807,0l0,437.00049z"/>
  <rect id="svg_4" fill="#f2f2f2" height="18" width="178" y="35.00009" x="27.00006"/>
  <rect id="svg_5" fill="#f2f2f2" height="18" width="178" y="35.00009" x="294.00006"/>
  <rect id="svg_6" fill="#f2f2f2" height="18" width="178" y="35.00009" x="561.00006"/>
  <path id="svg_7" fill="#3f3d56" d="m217.00003,45l-180,0l0,-20l180,0l0,20zm-178,-2l176,0l0,-16l-176,0l0,16z"/>
  <path id="svg_8" fill="#3f3d56" d="m484.00003,45l-180,0l0,-20l180,0l0,20zm-178,-2l176,0l0,-16l-176,0l0,16z"/>
  <path id="svg_9" fill="#3f3d56" d="m751.00003,45l-180,0l0,-20l180,0l0,20zm-178,-2l176,0l0,-16l-176,0l0,16z"/>
  <rect id="svg_10" fill="#2f2e41" height="2.55433" width="827.6044" y="682.73757" x="116.47367"/>
  <polygon id="svg_11" fill="#3f3d56" points="393.5 483.5 456.5 361.5 473.5 371.5 401.5 488.5 393.5 483.5"/>
  <path id="svg_12" fill="#ffffff" d="m357.00003,510.00009s11.61161,9.12341 12.92976,-10.39714a22.39053,22.39053 0 0 1 8.14625,-16.09c5.25768,-4.20079 12.82409,-7.0739 21.924,-1.51285c8.1,4.95 9.9225,12.1275 9.477,18.52537a28.47033,28.47033 0 0 1 -14.23265,22.2541c-9.02721,5.3584 -23.27736,9.39148 -38.24435,-3.77947c-0.00001,-0.00001 -9.00001,-10.00001 -0.00001,-9.00001z"/>
  <circle id="svg_13" fill="#ffb8b8" r="24.26618" cy="196.77542" cx="468.39689"/>
  <path id="svg_14" fill="#ffb8b8" d="m455.62521,208.2699s6.38584,33.20635 3.83151,39.59218s35.76068,-2.55433 35.76068,-2.55433s-7.663,-33.20635 -6.38584,-40.86935s-33.20635,3.8315 -33.20635,3.8315z"/>
  <polygon id="svg_15" fill="#ffb8b8" points="413.479 323.215 416.033 357.698 428.71 411.854 432.636 426.666 439.022 403.677 432.636 351.313 430.467 327.738 413.479 323.215"/>
  <path id="svg_16" fill="#ffb8b8" d="m547.58126,318.10631l0,35.76069s-3.8315,45.978 -11.49451,57.47252s-10.21734,-45.978 -10.21734,-45.978l6.00472,-42.14652l15.70713,-5.10869z"/>
  <path id="svg_17" fill="#2f2e41" d="m433.91337,429.2199s-6.38584,7.663 -1.27717,85.5702s-2.55433,134.10254 14.04883,134.10254c0,0 -5.10867,16.60317 8.94017,17.88034s20.43468,2.55433 21.71185,-1.27717s3.8315,-21.71184 0,-21.71184c0,0 0,5.10867 2.55433,-15.326s2.55434,-117.49939 8.94017,-130.27106l20.43468,47.25519s0,21.71184 3.8315,31.92918s10.21734,68.967 10.21734,68.967l-1.27717,8.94017s30.652,5.10867 31.92918,0s1.27717,-12.77167 0,-15.326s-1.27716,-2.55434 1.27717,-7.663s2.55434,-8.94017 1.27717,-12.77167s-1.27717,-86.84737 -1.27717,-86.84737s-2.55432,-100.89621 -17.88033,-106.00488s-103.45055,2.55437 -103.45055,2.55437z"/>
  <path id="svg_18" fill="#2f2e41" d="m450.51654,656.55564l-10.21733,17.88034s-15.96459,-5.74725 -12.77168,8.94017c27.4591,1.91576 46.61661,-0.63858 46.61661,-0.63858s6.38584,2.55434 7.663,-1.27717s-3.19292,-17.24175 -7.02442,-17.24175s-24.26618,-7.66301 -24.26618,-7.66301z"/>
  <path id="svg_19" fill="#2f2e41" d="m524.59225,651.44697s-10.21734,22.989 -6.38584,24.26618s38.315,6.38584 40.86935,7.663s15.326,2.55434 16.60318,-5.10866s-6.38584,-10.21734 -6.38584,-10.21734s-14.04884,-2.55434 -17.88034,-15.326s-26.82051,-1.27718 -26.82051,-1.27718z"/>
  <path id="svg_20" fill="#8985a8" d="m497.77173,241.47628s-34.48351,-6.38584 -42.14652,0s-39.59218,19.15751 -39.59218,25.54334s16.60317,68.967 16.60317,68.967s-8.94017,94.51037 0,97.06471s24.26618,-5.10867 42.14652,3.8315s68.967,-7.663 68.967,-7.663s-19.15751,-81.73871 -14.04884,-97.06472s8.94017,-67.68986 8.94017,-67.68986s-21.71181,-22.98897 -40.86932,-22.98897z"/>
  <path id="svg_21" fill="#8985a8" d="m424.9732,263.18812l-8.94017,2.55433s-19.15751,60.02687 -11.49451,62.5812s29.37485,7.663 31.92918,7.663s-11.4945,-72.79853 -11.4945,-72.79853z"/>
  <path id="svg_22" fill="#8985a8" d="m518.20641,256.80228l20.43468,7.663s26.82051,49.80952 20.43467,56.19536s-34.48351,12.77167 -34.48351,12.77167l-6.38584,-76.63003z"/>
  <path id="svg_23" fill="#2f2e41" d="m467.65982,166.8032a13.71573,13.71573 0 0 0 -6.07019,0.268a15.82739,15.82739 0 0 0 -4.31392,2.82986a50.49241,50.49241 0 0 1 -7.37585,4.88674c-2.06956,1.12349 -4.29418,2.16335 -5.739,4.0229a12.21142,12.21142 0 0 0 -1.61977,3.066a36.74032,36.74032 0 0 0 -1.93172,19.99594a9.19109,9.19109 0 0 0 0.85074,2.7457c1.3274,2.44565 4.2592,3.40946 6.72893,4.6915c4.689,2.43406 8.24343,6.53269 12.0893,10.15493a23.63385,23.63385 0 0 0 4.77655,3.68109c5.48668,2.99146 12.193,2.01556 18.35207,0.95775a3.30735,3.30735 0 0 0 3.30082,-3.33888l4.86152,-21.86574a35.67316,35.67316 0 0 0 1.246,-9.94448c-0.33919,-5.30791 -3.21279,-12.6606 -7.10829,-16.431c-4.53898,-4.39312 -12.1141,-5.09219 -18.04719,-5.72031z"/>
  <ellipse id="svg_24" fill="#ffffff" ry="2" rx="35" cy="681.00009" cx="368.00006"/>
  <ellipse id="svg_25" fill="#ffffff" ry="2" rx="35" cy="685.00009" cx="360.00006"/>
  <ellipse id="svg_26" fill="#ffffff" ry="1.08571" rx="19" cy="673.00009" cx="325.00006"/>
  <ellipse id="svg_27" fill="#ffffff" ry="1.08571" rx="19" cy="697.00009" cx="393.00006"/>
  <g stroke="null">

   <title stroke="null">Chef</title>
   <g stroke="null">
    <title stroke="null">Layer 1</title>
    <path stroke="null" id="svg_104" fill="url(#svg_105)" d="m830.10236,314.22078c-1.23428,-2.38895 -7.75811,-17.23466 -7.75811,-17.23466l-10.93185,-28.32629s-7.75805,-11.94477 -7.75805,-14.1631s-14.10559,-11.0916 -14.10559,-11.0916s-11.46079,-3.41277 -12.34241,-3.75409s-14.45822,-4.83254 -14.45822,-4.83254s-5.34608,-7.03034 -6.10768,-5.19423l-0.00066,0.00461c-0.02781,-0.04636 -0.05635,-0.08666 -0.08398,-0.13433a18.15152,18.15152 0 0 1 -2.03818,-6.57303c-0.02903,-0.20441 -0.05391,-0.42025 -0.07985,-0.63332a26.16452,26.16452 0 0 0 11.48411,-21.54307a25.81462,25.81462 0 0 0 -0.22569,-3.3487a2.34784,2.34784 0 0 1 0.30325,-0.15969c0.21942,-0.0953 0.1638,-0.17278 0.00262,-0.25368c0.05525,-0.02895 0.11038,-0.05974 0.16596,-0.08333c0.29195,-0.12684 0.09702,-0.22286 -0.18557,-0.33697l0.01695,-0.00853c0.39779,-0.17283 -0.10522,-0.28732 -0.50926,-0.47008c-0.02172,-0.11809 -0.04206,-0.23659 -0.06539,-0.35414a2.38161,2.38161 0 0 0 0.16197,-0.70313c0.03586,0.01781 0.06859,0.03705 0.10649,0.05363a2.98665,2.98665 0 0 0 -0.00726,-1.33477a2.3476,2.3476 0 0 1 -0.09175,0.26216a2.22812,2.22812 0 0 0 -1.02641,-2.02003c-0.02022,-0.0177 -0.04255,-0.03663 -0.06322,-0.05453l0.74791,-7.65528c11.02594,-0.52107 12.96028,-19.27969 10.44563,-20.32183s0,-3.30012 0,-7.8161s-8.31785,-9.553 -8.31785,-9.553s-3.48187,1.73695 -8.8981,-6.9476s-25.34031,-10.07407 -26.69436,-7.8161s-10.25219,5.21075 -21.85843,8.51086s-9.47846,17.02172 -7.54412,19.97445a16.85291,16.85291 0 0 1 2.70814,8.16348c0,1.73689 3.67531,9.03184 3.67531,9.03184c-1.15916,2.52786 1.79089,16.37587 2.66459,20.3117c-0.01374,0.12098 -0.02832,0.24153 -0.0404,0.36302c-0.00742,0.0119 -0.01723,0.02198 -0.02443,0.03405a1.85367,1.85367 0 0 0 -0.11284,0.19793a2.26507,2.26507 0 0 0 -0.17825,1.30549a2.72677,2.72677 0 0 0 0.19576,1.42658a26.03107,26.03107 0 0 0 9.23083,19.42147c0.01369,0.2368 0.02721,0.47522 0.04018,0.71905c0.16229,3.21485 0.25394,7.01673 0.08472,10.65478c-0.00875,0.18613 -0.02266,0.36839 -0.0328,0.55361a4.16325,4.16325 0 0 0 -2.95055,2.32677c-1.09317,2.1023 -7.44072,5.34449 -7.44072,5.34449s-11.10816,0.5119 -12.16604,2.55961s-17.10308,8.87325 -17.10308,8.87325s-8.46331,4.94858 -7.22912,10.5797c0.64491,2.94243 -1.16553,7.51366 -3.04131,11.20989a53.235,53.235 0 0 0 -12.17197,-3.03504l8.9888,8.59945c-0.18833,0.29397 -0.29931,0.46031 -0.29931,0.46031l-5.11331,18.08783s-1.76318,6.3137 -3.52637,7.84946s1.58687,15.52822 1.58687,15.52822s-1.93956,9.89716 -3.52642,12.45677s2.46849,8.87325 2.46849,8.87325l8.11072,18.4291l21.51101,5.46048s1.43344,0.30329 3.74984,0.79938q-0.10922,0.66063 -0.22347,1.31651c-1.03671,5.87006 -2.39795,11.26909 -4.05531,12.72977c-4.05536,3.58346 -3.87905,19.62358 -3.87905,19.62358l0.17632,22.69515s1.41056,27.98493 0.70525,29.00879c-0.44516,0.64622 0.44821,1.70011 2.80534,2.64717c-0.06743,0.42122 -0.13354,0.84856 -0.19582,1.28436c-0.66291,4.64145 -0.95908,9.93808 0.5643,12.27927a9.32889,9.32889 0 0 1 1.05788,4.09536c0,2.21838 3.35012,6.8256 3.35012,6.8256s-2.64481,18.94105 1.76318,25.42533s8.11072,18.25852 5.99487,20.98876c0,0 -3.70269,8.02009 -1.9395,11.6035s0,5.63111 -2.29218,6.48433s-2.09464,7.84945 -2.09464,7.84945l4.21051,33.27477s2.29213,6.8256 0.35263,9.21458s-1.9395,14.33372 1.05793,18.42909s-4.23168,11.60349 -4.23168,11.60349s-4.40799,6.3137 2.6448,8.36141c0,0 1.41057,0.34127 -1.23428,3.07151s-3.17375,6.14301 -1.41056,7.3375a8.06954,8.06954 0 0 0 1.14365,0.56815c-0.06544,0.40444 -0.13631,0.82341 -0.2197,1.26796c-0.67716,3.56287 -1.95362,8.20432 -4.27405,10.44998a74.49392,74.49392 0 0 0 -11.5454,15.38488c-2.41912,4.58683 -3.47705,8.88012 -0.79695,10.89366c6.3475,4.77795 14.45823,6.3137 19.21884,4.43663s11.46079,-7.67877 11.46079,-7.67877l1.58687,-6.65496s-1.05788,-4.09536 4.23168,-5.63112s10.22659,-6.99623 10.22659,-6.99623l0,-8.84579a37.48615,37.48615 0 0 0 3.70269,-2.41638s2.46849,-8.70268 0,-11.60354s-3.35006,-3.92473 -0.17632,-5.80175s3.60399,-5.97238 1.27658,-9.55581c-2.33452,-3.58346 -6.03719,-8.87325 -2.86346,-16.38144s4.33751,-30.54454 4.33751,-30.54454s-1.4811,-15.69891 0,-19.28231s-1.6927,-10.75033 -1.6927,-10.75033s1.05793,-8.87331 2.99743,-12.96867s3.52642,-25.7666 3.52642,-25.7666s3.52637,-9.21457 3.52637,-15.18695s-5.46593,-20.30618 2.6448,-24.06027c0,0 3.52638,3.07151 2.11581,15.3576c0,0 4.05536,14.33378 4.05536,18.77041s2.99743,20.4768 2.99743,20.4768s0.35268,5.11922 1.58687,6.99628s0,6.99623 0,6.99623s4.58436,4.26599 3.35011,6.99623s0.21161,8.88693 0.21161,8.88693l-1.09323,38.20969s-3.17374,16.38144 4.23168,26.2786c0,0 -2.64481,14.50437 -4.23168,15.52822s5.81856,9.89711 5.81856,9.89711s-2.05259,5.74834 2.11586,6.03014l0,9.49808a20.29255,20.29255 0 0 0 5.81855,6.48433c3.87905,2.73024 2.29213,12.11545 2.29213,12.11545s4.93698,11.94481 17.98464,9.38524s14.8109,-3.7541 14.10559,-8.02009c-0.25389,-1.55619 -0.81806,-4.33426 -1.6292,-7.4877c-1.40353,-5.48091 -3.55457,-12.09496 -6.12884,-15.35759c-4.05536,-5.13964 -7.40548,-15.88997 -7.40548,-15.88997s-1.58687,-3.58347 0,-4.77791s0.88162,-3.41277 0.88162,-3.41277s1.54454,-4.43662 0.15515,-7.16686s2.66597,-8.36141 2.66597,-8.36141l-1.23428,-26.27855l1.23428,-38.22331s-5.46593,-6.3137 -3.17375,-10.0678s-2.6448,-9.04388 -2.6448,-9.04388s-0.52894,-0.17069 0.88162,-4.43668a10.63329,10.63329 0 0 0 -0.35268,-7.67877s-2.99743,-10.5797 2.29218,-18.59978c0,0 2.29218,-10.57964 2.99743,-16.04012c0.48661,-3.79506 3.53346,-17.97182 5.34607,-26.26498q0.15368,-0.70301 0.29467,-1.34613c2.61095,0.14264 4.5858,0.30872 4.5858,0.30872s-4.05536,-28.15563 0,-33.95737s-3.17375,-50.16818 -3.17375,-50.16818s-1.72788,-7.75382 -2.79285,-15.66475c-0.06095,-0.45072 -0.11625,-0.90106 -0.17238,-1.35139a85.47078,85.47078 0 0 1 9.84172,-0.21847c8.46335,0.5119 16.7504,-2.73024 16.92671,-5.97244s4.76061,-16.04012 5.46593,-18.94099s1.23426,-12.79818 0.00002,-15.1871z"/>
    <path stroke="null" id="svg_103" fill="#4c495a" d="m727.21962,643.40477l0,15.80033s-4.75709,5.43668 -9.85397,6.96574s-4.0775,5.60657 -4.0775,5.60657l-1.52907,6.62595s-6.45604,5.77647 -11.04324,7.64535s-12.40241,0.3398 -18.51867,-4.4173c-2.58245,-2.00478 -1.56307,-6.27934 0.76794,-10.84617a73.97612,73.97612 0 0 1 11.12478,-15.31782c2.23587,-2.23587 3.46586,-6.85702 4.11834,-10.40443c0.48248,-2.6572 0.63876,-4.71632 0.63876,-4.71632l28.37263,3.05811z"/>
    <path stroke="null" id="svg_102" opacity="0.1" d="m727.21962,655.19554l0,4.00956s-4.75709,5.43668 -9.85397,6.96574s-4.0775,5.60657 -4.0775,5.60657l-1.52907,6.62595s-6.45604,5.77647 -11.04324,7.64535s-12.40241,0.3398 -18.51867,-4.4173c-2.58245,-2.00478 -1.56307,-6.27934 0.76794,-10.84617c-0.10876,4.79786 1.31163,10.18696 8.23655,9.99669a35.08108,35.08108 0 0 0 20.55741,-7.47543s-0.16989,-11.21313 7.64535,-13.76157a23.80478,23.80478 0 0 0 7.81519,-4.34938z"/>
    <path stroke="null" id="svg_101" fill="#4c495a" d="m789.40152,683.84002c-12.57231,2.54845 -17.3294,-9.34428 -17.3294,-9.34428s1.52907,-9.34428 -2.20865,-12.06262a20.04951,20.04951 0 0 1 -5.60657,-6.45605l0,-15.63043l15.29064,-10.87334l8.27729,7.32589l0.55731,0.48933s3.22803,10.70345 7.13563,15.82069c2.4805,3.24843 4.55318,9.8336 5.90554,15.29064c0.78163,3.13968 1.32525,5.90559 1.56989,7.45507c0.67961,4.2474 -1.01935,5.43667 -13.59169,7.98511z"/>
    <path stroke="null" id="svg_100" opacity="0.1" d="m789.40152,683.84002c-12.57231,2.54845 -17.3294,-9.34428 -17.3294,-9.34428s1.52907,-9.34428 -2.20865,-12.06262a20.04951,20.04951 0 0 1 -5.60657,-6.45605l0,-6.05511c2.42617,2.56204 6.99978,7.523 7.98511,9.62293c1.35917,2.88823 1.52907,13.42178 7.81522,15.29064s18.51867,3.56782 19.53805,-1.18927a26.50505,26.50505 0 0 1 1.82804,-5.24642c0.78163,3.13968 1.32525,5.90559 1.56989,7.45507c0.67961,4.2474 -1.01935,5.43667 -13.59169,7.98511z"/>
    <path stroke="null" id="svg_99" opacity="0.1" d="m698.84697,640.34664l28.37265,3.05814l0,8.35207c-3.20082,1.89602 -7.78801,3.90761 -10.36366,1.84168c-3.80565,-3.04456 -15.12075,-6.91143 -18.64775,-8.53557c0.48246,-2.65721 0.63875,-4.71632 0.63875,-4.71632z"/>
    <path stroke="null" id="svg_98" opacity="0.1" d="m788.38217,638.64768c-3.90761,-1.35917 -10.87334,4.58721 -20.04773,8.3249a9.55008,9.55008 0 0 1 -4.07751,0.91062l0,-7.53657l15.29064,-10.87334l8.27729,7.32589a10.33392,10.33392 0 0 0 0.55731,1.8485z"/>
    <path stroke="null" id="svg_97" fill="#5f5d7e" d="m798.40604,451.59215s-0.5369,2.50086 -1.30475,6.12981c-1.74658,8.25697 -4.68243,22.37194 -5.1513,26.15043c-0.67959,5.43668 -2.88823,15.97023 -2.88823,15.97023c-5.09689,7.98511 -2.20865,18.51867 -2.20865,18.51867a10.90608,10.90608 0 0 1 0.33979,7.64535c-1.35917,4.2474 -0.84948,4.4173 -0.84948,4.4173s4.75709,5.26678 2.54844,9.00449s3.05814,10.02386 3.05814,10.02386l-1.18927,38.05671l1.18927,26.16398s-3.90761,5.60657 -2.56885,8.3249s-0.14949,7.13564 -0.14949,7.13564s0.67958,2.20864 -0.84948,3.39791s0,4.7571 0,4.7571c-3.90761,-1.35918 -10.87334,4.58721 -20.04773,8.3249s-6.11628,-5.09689 -6.11628,-5.09689s-7.13563,-8.83459 -5.60657,-9.85397s4.0775,-15.46054 4.0775,-15.46054c-7.13563,-9.85397 -4.0775,-26.16399 -4.0775,-26.16399l1.05339,-38.04315s-1.39318,-6.12982 -0.20391,-8.84814s-3.22803,-6.96574 -3.22803,-6.96574s1.18927,-5.09688 0,-6.96574s-1.52907,-6.96574 -1.52907,-6.96574s-2.88823,-15.97022 -2.88823,-20.38752s-3.90761,-18.68856 -3.90761,-18.68856c1.35917,-12.23256 -2.03875,-15.29064 -2.03875,-15.29064c-7.81522,3.73771 -2.54844,18.00898 -2.54844,23.95534s-3.39792,15.12075 -3.39792,15.12075s-1.52907,21.5768 -3.39792,25.6543s-2.88824,12.9121 -2.88824,12.9121s3.05814,7.13563 1.63102,10.70349s0,19.19823 0,19.19823s-1.12133,22.93596 -4.17946,30.41139s0.50969,12.7422 2.75915,16.31002c2.24258,3.56782 1.82804,7.64535 -1.23008,9.51418s-2.20865,2.88823 0.16989,5.77647s0,11.55293 0,11.55293s-9.68408,7.64535 -13.93148,4.2474s-17.83908,-7.81521 -19.53805,-9.00448s-1.18927,-4.58721 1.35917,-7.30554s1.18927,-3.05814 1.18927,-3.05814c-6.79584,-2.03875 -2.54844,-8.3249 -2.54844,-8.3249s6.96574,-7.47543 4.07751,-11.55293s-2.88824,-15.97023 -1.01938,-18.34877s-0.3398,-9.17442 -0.3398,-9.17442l-4.05711,-33.12972s-0.1903,-6.96574 2.01835,-7.81522s3.90761,-2.88823 2.20865,-6.45604s1.86885,-11.55293 1.86885,-11.55293c2.03875,-2.71834 -1.52907,-14.44117 -5.77647,-20.89721s-1.69896,-25.31451 -1.69896,-25.31451s-3.22803,-4.58721 -3.22803,-6.79584a9.51979,9.51979 0 0 0 -1.01938,-4.0775c-1.46784,-2.33097 -1.18247,-7.60455 -0.5437,-12.22571c0.61845,-4.47167 1.56308,-8.33171 1.56308,-8.33171l107.03454,2.71832z"/>
    <path stroke="null" id="svg_96" fill="#fdc2cc" d="m765.10641,259.09996l-33.46952,7.81522s-16.47991,-13.93148 -12.4024,-21.40691c1.39998,-2.56885 2.01835,-6.95217 2.22906,-11.5869c0.16309,-3.6222 0.07474,-7.40749 -0.08163,-10.60835c-0.23776,-4.62797 -0.61836,-8.04625 -0.61836,-8.04625s34.319,-19.36814 33.12972,0a49.47091,49.47091 0 0 0 0.22432,9.67727a18.50112,18.50112 0 0 0 1.96392,6.54439c1.83485,3.2688 4.09792,3.31638 4.09792,3.31638l4.92698,24.29513z"/>
    <path stroke="null" id="svg_95" opacity="0.1" d="m754.11759,224.94405a26.32289,26.32289 0 0 1 -32.73568,-1.63102c-0.23776,-4.62797 -0.61836,-8.04625 -0.61836,-8.04625s34.319,-19.36814 33.12972,0a49.47091,49.47091 0 0 0 0.22432,9.67727z"/>
    <circle stroke="null" id="svg_94" fill="#fdc2cc" r="26.33389" cy="202.86437" cx="738.77252"/>
    <path stroke="null" id="svg_93" opacity="0.1" d="m765.10641,259.09996l-33.46952,7.81522s-16.47991,-13.93148 -12.4024,-21.40691c1.39998,-2.56885 2.01835,-6.95217 2.22906,-11.5869a17.07473,17.07473 0 0 0 6.09585,10.22773c7.64535,5.09688 6.45604,11.38304 6.45604,11.38304l13.76158,-0.50969c-0.84947,-5.60656 4.2474,-8.66469 5.94636,-9.34428s0.84948,-3.73771 0.84948,-3.73771l1.50865,-10.45201c1.83485,3.2688 4.09792,3.31638 4.09792,3.31638l4.92698,24.29513z"/>
    <path stroke="null" id="svg_92" opacity="0.1" d="m798.40604,451.59215s-0.5369,2.50086 -1.30475,6.12981c-3.69698,-0.19706 -8.58324,-0.33979 -10.75788,0.15634c-3.73771,0.84948 -18.68856,1.18927 -18.68856,1.18927l-37.03733,1.31157l0,-1.14169a109.20333,109.20333 0 0 0 -12.7422,0.84948c-6.28616,0.84948 -16.14009,-0.33979 -22.42628,-1.35917a24.14788,24.14788 0 0 1 -5.64058,-1.52226c0.61845,-4.47167 1.56308,-8.33171 1.56308,-8.33171l107.0345,2.71836z"/>
    <path stroke="null" id="svg_91" fill="#ffffff" d="m796.39256,343.70817c-0.5369,3.17365 -0.14268,8.43362 0.5369,13.62565c1.02618,7.8764 2.69113,15.59646 2.69113,15.59646s6.96574,44.17297 3.05814,49.94943s0,33.80931 0,33.80931s-11.72283,-1.01938 -15.46054,-0.16989s-18.68856,1.18927 -18.68856,1.18927l-37.03733,1.31159l0,-1.14169a109.20333,109.20333 0 0 0 -12.7422,0.84948c-6.28616,0.84947 -16.14009,-0.3398 -22.42628,-1.35917s-8.83459,-3.05814 -8.155,-4.07751s-0.67959,-28.88233 -0.67959,-28.88233l-0.16989,-22.59617s-0.16989,-15.97023 3.73771,-19.53805c1.597,-1.45431 2.90864,-6.82981 3.90761,-12.67426c1.43391,-8.46082 2.20865,-17.90702 2.20865,-17.90702l-25.82422,-69.14768l-0.50968,-1.35917s7.47542,-11.55293 6.28615,-17.1595s6.96574,-10.53355 6.96574,-10.53355s15.46054,-6.79584 16.47991,-8.8346s11.72283,-2.54844 11.72283,-2.54844s6.11628,-3.22802 7.16964,-5.32113a4.01834,4.01834 0 0 1 2.84742,-2.31736a17.11047,17.11047 0 0 0 6.12306,10.35686c7.64535,5.09688 6.45604,11.38303 6.45604,11.38303l13.76158,-0.50968c-0.84947,-5.60657 4.2474,-8.66469 5.94636,-9.34428s0.84948,-3.73771 0.84948,-3.73771l1.5903,-11.00247c0.73384,-1.82808 5.88514,5.17163 5.88514,5.17163s13.082,4.47168 13.93148,4.81147s11.89273,3.73771 11.89273,3.73771s13.59168,8.8346 13.59168,11.04325s7.47543,14.10137 7.47543,14.10137s-0.08835,0.47572 -0.25145,1.34556c-1.72609,9.36466 -11.92666,64.57407 -13.17035,71.8796z"/>
    <path stroke="null" id="svg_90" fill="#fdc2cc" d="m741.15108,316.18502s-29.39202,-7.81522 -32.28025,-9.68408s-19.87784,9.00449 0.84948,23.78544c0,0 25.34545,5.26677 32.12582,0s-0.69505,-14.10136 -0.69505,-14.10136z"/>
    <path stroke="null" id="svg_89" opacity="0.1" d="m804.69222,269.6335l3.56782,0.16989l10.53355,28.20274s6.28615,14.78096 7.47542,17.1595s0.67959,12.23251 0,15.12075s-5.09688,15.63043 -5.26677,18.85846s-8.15501,6.45604 -16.31002,5.94636s-27.18336,2.03875 -27.18336,2.03875s-20.32169,-2.12405 -32.78993,4.2474c0,0 -7.98511,-16.47991 -7.13563,-47.23109c0,0 14.10137,-0.84948 17.66916,0.50968s20.89721,5.26678 23.10585,3.22803s12.23256,3.73771 12.23256,3.73771a8.61043,8.61043 0 0 0 0,-7.13563c-1.69897,-4.0775 -4.58721,-16.8197 -0.84948,-20.89721s14.95083,-23.95534 14.95083,-23.95534z"/>
    <path stroke="null" id="svg_88" opacity="0.1" d="m796.0547,357.33382c-8.43366,0.57087 -17.86629,1.83488 -17.86629,1.83488s-20.31958,-2.1271 -32.78993,4.2474c0,0 -7.98511,-16.47991 -7.13563,-47.23109c0,0 14.10137,-0.84948 17.66916,0.50968s20.89721,5.26678 23.10586,3.22803s12.23251,3.73771 12.23251,3.73771a8.6104,8.6104 0 0 0 0,-7.13563c-1.69896,-4.0775 -4.58721,-16.8197 -0.84947,-20.89721s14.95085,-23.95534 14.95085,-23.95534l3.31637,0.15628c-1.72608,9.36469 -11.92665,64.5741 -13.1703,71.87963c-0.53692,3.17365 -0.1427,8.43362 0.53688,13.62565z"/>
    <path stroke="null" id="svg_87" fill="#ffffff" d="m805.37178,270.31308l3.56782,0.1699l10.53355,28.20274s6.28615,14.78095 7.47542,17.15949s0.67959,12.23252 0,15.12075s-5.09688,15.63044 -5.26677,18.85846s-8.15501,6.45605 -16.31002,5.94637s-27.18337,2.03875 -27.18337,2.03875s-20.32168,-2.12405 -32.78993,4.2474c0,0 -7.98511,-16.47991 -7.13563,-47.23109c0,0 14.10137,-0.84948 17.66916,0.50968s20.89721,5.26677 23.10586,3.22803s12.23251,3.73771 12.23251,3.73771a8.6104,8.6104 0 0 0 0,-7.13563c-1.69896,-4.07751 -4.58721,-16.81971 -0.84947,-20.89721s14.95088,-23.95534 14.95088,-23.95534z"/>
    <rect stroke="null" transform="matrix(-0.743729 -0.460503 0.460503 -0.743729 1413.62 1969.76)" id="svg_86" fill="#dfe6f5" height="51.30021" width="5.70002" y="1203.46586" x="1605.56404"/>
    <ellipse stroke="null" transform="matrix(0.460504 -0.743728 0.743728 0.460504 -211.201 467.704)" id="svg_85" fill="#dfe6f5" ry="11.51405" rx="16.41607" cy="874.77962" cx="784.99548"/>
    <ellipse stroke="null" transform="matrix(0.460504 -0.743728 0.743728 0.460504 -211.201 467.704)" id="svg_84" opacity="0.1" ry="8.26475" rx="11.78341" cy="874.77962" cx="784.99548"/>
    <rect stroke="null" transform="matrix(-0.743729 -0.460503 0.460503 -0.743729 1309.57 2021.57)" id="svg_83" fill="#53526b" height="31.92013" width="5.70002" y="1290.22447" x="1535.60938"/>
    <path stroke="null" id="svg_82" fill="#fdc2cc" d="m732.48637,353.90193l10.36366,-2.88823s51.13871,1.35917 33.9792,-19.70794c0,0 -9.00449,-8.6647 -27.86295,-1.69897s-24.12523,7.81522 -24.12523,7.81522l7.64532,16.47991z"/>
    <circle stroke="null" id="svg_81" opacity="0.1" r="2.03875" cy="263.00757" cx="724.84105"/>
    <circle stroke="null" id="svg_80" opacity="0.1" r="2.03875" cy="261.81829" cx="759.83963"/>
    <circle stroke="null" id="svg_79" fill="#fff" r="2.03875" cy="262.32798" cx="724.84105"/>
    <circle stroke="null" id="svg_78" opacity="0.1" r="2.03875" cy="291.21031" cx="727.72929"/>
    <circle stroke="null" id="svg_77" opacity="0.1" r="2.03875" cy="289.17155" cx="760.85901"/>
    <circle stroke="null" id="svg_76" fill="#fff" r="2.03875" cy="290.53072" cx="727.72929"/>
    <circle stroke="null" id="svg_75" opacity="0.1" r="2.03875" cy="387.55292" cx="760.00954"/>
    <circle stroke="null" id="svg_74" opacity="0.1" r="2.03875" cy="387.55292" cx="733.17775"/>
    <circle stroke="null" id="svg_73" fill="#fff" r="2.03875" cy="386.87334" cx="760.00954"/>
    <circle stroke="null" id="svg_72" opacity="0.1" r="2.03875" cy="421.69045" cx="735.2165"/>
    <circle stroke="null" id="svg_71" opacity="0.1" r="2.03875" cy="419.6517" cx="760.85901"/>
    <circle stroke="null" id="svg_70" fill="#fff" r="2.03875" cy="421.01087" cx="735.2165"/>
    <circle stroke="null" id="svg_69" fill="#fff" r="2.03875" cy="386.87334" cx="733.17775"/>
    <circle stroke="null" id="svg_68" fill="#fff" r="2.03875" cy="418.97212" cx="760.85901"/>
    <circle stroke="null" id="svg_67" fill="#fff" r="2.03875" cy="261.13871" cx="759.83963"/>
    <circle stroke="null" id="svg_66" fill="#fff" r="2.03875" cy="288.49196" cx="760.85901"/>
    <path stroke="null" id="svg_65" opacity="0.1" d="m763.91714,360.01819s0.33979,46.55151 1.35917,54.87642c0,0 0.37005,-52.68189 -1.35917,-54.87642z"/>
    <path stroke="null" id="svg_64" opacity="0.1" d="m772.58183,381.59499c-0.70049,0 13.93148,54.53662 14.61102,58.44423s-10.53351,-58.44423 -14.61102,-58.44423z"/>
    <path stroke="null" id="svg_63" opacity="0.1" d="m784.13477,372.76039c0,0.50969 8.15501,29.56191 12.23256,31.09098s-12.23256,-31.09098 -12.23256,-31.09098z"/>
    <path stroke="null" id="svg_62" opacity="0.1" d="m816.2451,316.18502s-17.3294,0.77241 -17.83908,3.27444s17.83908,-3.27444 17.83908,-3.27444z"/>
    <path stroke="null" id="svg_61" opacity="0.1" d="m785.66384,537.72943s-12.40241,5.26678 -10.53355,5.60657s10.53355,-5.60657 10.53355,-5.60657z"/>
    <path stroke="null" id="svg_60" opacity="0.1" d="m760.00954,529.91423c-0.48301,-1.08678 8.3249,4.41729 8.3249,5.09688s-7.64533,-3.56781 -8.3249,-5.09688z"/>
    <path stroke="null" id="svg_59" opacity="0.1" d="m771.56247,547.7533s9.68407,-0.48863 10.36365,3.23855s-10.36365,-3.23855 -10.36365,-3.23855z"/>
    <path stroke="null" id="svg_58" opacity="0.1" d="m701.90511,547.73221s10.53355,-2.05984 11.38304,0s-11.38304,0 -11.38304,0z"/>
    <path stroke="null" id="svg_57" opacity="0.1" d="m705.8127,611.80411s0.69074,8.66469 -1.86328,10.70349s1.86328,-10.70349 1.86328,-10.70349z"/>
    <path stroke="null" id="svg_56" opacity="0.1" d="m704.52615,630.15287c3.3253,0.3398 20.82459,-2.71833 20.6547,0s-20.6547,0 -20.6547,0z"/>
    <path stroke="null" id="svg_55" opacity="0.1" d="m784.81435,619.61932s-5.96829,-0.91729 -4.51321,3.10917l4.51321,-3.10917z"/>
    <path stroke="null" id="svg_54" opacity="0.1" d="m673.87225,280.50685l-3.22803,0l-4.92698,18.00898s-1.69896,6.28615 -3.39792,7.81521s1.52907,15.46055 1.52907,15.46055s-1.86885,9.85397 -3.39791,12.4024s2.37854,8.8346 2.37854,8.8346l7.81521,18.34876l20.7273,5.43668s36.52764,7.98511 38.22661,9.17442s3.22802,-0.50969 4.41729,-11.55293s4.4173,-32.45014 6.96574,-33.46952c0,0 -20.38752,2.20865 -22.08648,1.86886s-9.85397,0.16989 -9.85397,0.16989s-10.70349,-0.67958 -12.4024,0.33979s2.20864,-4.93464 2.20864,-4.93464a16.38508,16.38508 0 0 0 0,-8.31725c-1.18926,-4.58723 -1.86884,-56.57541 -24.9747,-39.58581z"/>
    <path stroke="null" id="svg_53" opacity="0.1" d="m740.30157,333.00472c-2.54844,1.01938 -5.77647,22.42627 -6.96574,33.46952s-2.71833,12.7422 -4.4173,11.55293c-1.37957,-0.96505 -25.72904,-6.41528 -34.82869,-8.42687c1.43391,-8.46082 2.20865,-17.90702 2.20865,-17.90702l-25.82418,-69.14768l2.71833,0c23.10586,-16.98961 23.78544,34.99858 24.97472,39.58578a16.38902,16.38902 0 0 1 0,8.3181s-3.90761,5.95317 -2.20865,4.93379s12.40241,-0.33979 12.40241,-0.33979s8.15501,-0.50969 9.85397,-0.16989s22.08647,-1.86886 22.08647,-1.86886z"/>
    <path stroke="null" id="svg_52" fill="#ffffff" d="m674.06741,282.06119l-3.22802,0l-4.92699,18.00898s-1.69896,6.28616 -3.39791,7.81522s1.52907,15.46054 1.52907,15.46054s-1.86886,9.85397 -3.39792,12.40241s2.37854,8.83459 2.37854,8.83459l7.81522,18.34877l20.7273,5.43668s36.52765,7.98511 38.22661,9.17442s3.22803,-0.50968 4.4173,-11.55288s4.4173,-32.45014 6.96574,-33.46952c0,0 -20.38753,2.20865 -22.08648,1.86886s-9.85397,0.16989 -9.85397,0.16989s-10.70349,-0.67959 -12.40241,0.33979s2.20865,-4.93464 2.20865,-4.93464a16.38508,16.38508 0 0 0 0,-8.31725c-1.18927,-4.58728 -1.86886,-56.57547 -24.97472,-39.58586z"/>
    <path stroke="null" id="svg_51" opacity="0.1" d="m684.23595,342.68879s-9.34428,17.66916 -11.04325,15.63044s11.04325,-15.63044 11.04325,-15.63044z"/>
    <path stroke="null" id="svg_50" opacity="0.1" d="m674.55183,332.62718s-8.6647,7.17339 -4.58721,9.04225s4.58721,-9.04225 4.58721,-9.04225z"/>
    <path stroke="null" id="svg_49" opacity="0.1" d="m682.70688,323.83033c0.67958,0.16989 12.5723,2.53194 12.74219,3.55957s-12.74219,-3.55957 -12.74219,-3.55957z"/>
    <path stroke="null" id="svg_48" opacity="0.1" d="m765.18116,199.37129a1.75161,1.75161 0 0 0 -1.16207,1.82128c-0.69319,0.61165 -1.66502,-0.10871 -2.22906,-0.89025c-0.57082,-0.77473 -1.2164,-1.73293 -2.07948,-1.62422a7.46499,7.46499 0 0 0 -1.18927,0.49613c-1.35917,0.4349 -2.50771,-1.1621 -3.26883,-2.56204q-1.98774,-3.67994 -3.97556,-7.3531c-2.6572,1.54266 -5.79687,-0.07475 -8.43366,-1.6718s-5.77647,-3.22122 -8.44038,-1.67855c-3.90761,2.25622 -4.05037,9.77922 -8.10067,11.63448c-1.30484,0.59803 -2.82029,0.46887 -4.02999,1.29122c-1.19608,0.81547 -1.84165,2.38531 -2.37855,3.8872a4.11731,4.11731 0 0 1 -1.33195,2.19505a2.9261,2.9261 0 0 1 -1.37278,0.33303a5.88926,5.88926 0 0 1 -3.5338,-0.49612a2.98651,2.98651 0 0 1 -1.22329,-3.53385a1.84894,1.84894 0 0 1 0.10876,-0.19706a12.36654,12.36654 0 0 0 1.16886,-1.67856c0.40774,-1.08055 -0.1767,-2.33776 -0.04753,-3.50667c0.21063,-1.99798 2.32413,-3.05133 2.68432,-5.01533c0.1495,-0.76794 -0.0068,-1.59021 0.13588,-2.36494a2.14992,2.14992 0 0 1 0.08163,-0.29902l-1.24369,0.85628c1.39318,-1.62422 2.09317,-3.88041 3.11255,-5.85123a18.01979,18.01979 0 0 1 10.99566,-8.95016c4.4309,-1.29114 9.11319,-0.93782 13.58488,0.15634a44.73484,44.73484 0 0 1 12.08982,4.98132a11.99708,11.99708 0 0 1 3.5202,2.86107a22.03668,22.03668 0 0 1 2.08637,3.85323c1.31836,2.73194 4.92019,5.25997 2.05236,5.64054c-2.38534,0.31943 -0.21071,1.99122 1.03979,3.1193a3.24377,3.24377 0 0 1 0.72032,0.7883a2.82169,2.82169 0 0 1 -0.14958,2.72514c-0.48248,0.61167 1.47481,0.73399 0.80875,1.03301z"/>
    <path stroke="null" id="svg_47" fill="#865a61" d="m765.18116,198.69171a1.7516,1.7516 0 0 0 -1.16207,1.82128c-0.69319,0.61164 -1.66502,-0.10872 -2.22906,-0.89025c-0.57082,-0.77473 -1.2164,-1.73293 -2.07948,-1.62422a7.46418,7.46418 0 0 0 -1.18927,0.49613c-1.35917,0.4349 -2.50771,-1.1621 -3.26883,-2.56205q-1.98774,-3.67992 -3.97556,-7.3531c-2.6572,1.54267 -5.79687,-0.07474 -8.43366,-1.67179s-5.77647,-3.22123 -8.44038,-1.67856c-3.90761,2.25623 -4.05037,9.77923 -8.10067,11.63448c-1.30484,0.59804 -2.82029,0.46892 -4.02999,1.29122c-1.19608,0.81547 -1.84165,2.38531 -2.37855,3.88721a4.11732,4.11732 0 0 1 -1.33195,2.19504a2.92611,2.92611 0 0 1 -1.37278,0.33304a5.88933,5.88933 0 0 1 -3.5338,-0.49613a2.9865,2.9865 0 0 1 -1.22329,-3.53385a1.84894,1.84894 0 0 1 0.10876,-0.19706a12.36645,12.36645 0 0 0 1.16886,-1.67855c0.40774,-1.08056 -0.1767,-2.33777 -0.04753,-3.50668c0.21063,-1.99794 2.32413,-3.05133 2.68432,-5.01533c0.1495,-0.76793 -0.0068,-1.59021 0.13588,-2.36494a2.15025,2.15025 0 0 1 0.08163,-0.29902l-1.24369,0.85628c1.39318,-1.62421 2.09317,-3.88041 3.11255,-5.85123a18.01977,18.01977 0 0 1 10.99566,-8.95015c4.4309,-1.29119 9.11319,-0.93783 13.58488,0.15633a44.73512,44.73512 0 0 1 12.08982,4.98132a11.99708,11.99708 0 0 1 3.5202,2.86107a22.03668,22.03668 0 0 1 2.08637,3.85323c1.31836,2.73194 4.92019,5.25998 2.05236,5.64054c-2.38534,0.31943 -0.21071,1.99122 1.03979,3.11931a3.24345,3.24345 0 0 1 0.72032,0.7883a2.82169,2.82169 0 0 1 -0.14958,2.72514c-0.48248,0.61166 1.47481,0.73399 0.80875,1.03301z"/>
    <path stroke="null" id="svg_46" opacity="0.1" d="m763.80166,194.14529l-0.27193,2.86107s-28.51532,-36.14029 -50.69688,4.66874c0,0 -0.10884,-0.49613 -0.29226,-1.33201a12.36645,12.36645 0 0 0 1.16886,-1.67855c0.40774,-1.08056 -0.1767,-2.33777 -0.04753,-3.50668c0.21063,-1.99794 2.32413,-3.05133 2.68432,-5.01533c0.1495,-0.76793 -0.0068,-1.59021 0.13588,-2.36494a2.15025,2.15025 0 0 1 0.08163,-0.29902l-1.24369,0.85628c1.39318,-1.62421 2.09317,-3.88041 3.11255,-5.85123a18.01977,18.01977 0 0 1 10.99566,-8.95015c4.4309,-1.29119 9.11319,-0.93783 13.58488,0.15633a44.73512,44.73512 0 0 1 12.08982,4.98132a11.99708,11.99708 0 0 1 3.5202,2.86107a22.03668,22.03668 0 0 1 2.08637,3.85323c1.31836,2.73194 4.92019,5.25998 2.05236,5.64054c-2.38538,0.31945 -0.21075,1.99125 1.03975,3.11934z"/>
    <g stroke="null" id="svg_40" opacity="0.1">
     <path stroke="null" id="svg_45" d="m764.50483,198.32157a1.37698,1.37698 0 0 0 -0.32328,1.17625c-0.69319,0.61164 -1.66503,-0.10871 -2.22906,-0.89025c-0.57083,-0.77473 -1.2164,-1.73293 -2.07948,-1.62422a7.46465,7.46465 0 0 0 -1.18927,0.49613c-1.35918,0.4349 -2.50771,-1.1621 -3.26884,-2.56204q-1.98774,-3.67994 -3.97555,-7.3531c-2.6572,1.54266 -5.79687,-0.07475 -8.43366,-1.6718s-5.77647,-3.22122 -8.44038,-1.67856c-3.90761,2.25623 -4.05038,9.77923 -8.10068,11.63448c-1.30483,0.59803 -2.82029,0.46887 -4.02999,1.29122c-1.19608,0.81546 -1.84165,2.38531 -2.37854,3.8872a4.11739,4.11739 0 0 1 -1.33196,2.19505a2.92605,2.92605 0 0 1 -1.37277,0.33303a5.88934,5.88934 0 0 1 -3.53381,-0.49613a3.17862,3.17862 0 0 1 -1.32433,-1.86819a3.05564,3.05564 0 0 0 1.32433,3.22735a5.88928,5.88928 0 0 0 3.53381,0.49613a2.92605,2.92605 0 0 0 1.37277,-0.33303a4.11739,4.11739 0 0 0 1.33196,-2.19505c0.5369,-1.50189 1.18247,-3.07173 2.37854,-3.8872c1.20968,-0.82231 2.72514,-0.69319 4.02999,-1.29122c4.0503,-1.85526 4.19306,-9.37824 8.10068,-11.63448c2.66392,-1.54267 5.80359,0.08154 8.44038,1.67855s5.77647,3.21446 8.43366,1.6718q1.98773,3.66973 3.97555,7.3531c0.76113,1.39994 1.90967,2.99691 3.26884,2.56204a7.46465,7.46465 0 0 1 1.18927,-0.49613c0.86308,-0.10871 1.50865,0.84948 2.07948,1.62422c0.56402,0.78154 1.53587,1.5019 2.22906,0.89025a1.7516,1.7516 0 0 1 1.16206,-1.82128c0.52985,-0.23779 -0.59703,-0.36472 -0.83878,-0.71413z"/>
     <path stroke="null" id="svg_44" d="m762.28265,191.53194a2.4608,2.4608 0 0 1 0.64168,-0.16197c1.26443,-0.16779 1.26974,-0.75375 0.76901,-1.58983a1.98739,1.98739 0 0 1 -0.76901,0.23066c-1.36449,0.18271 -1.2349,0.80829 -0.64168,1.52114z"/>
     <path stroke="null" id="svg_43" d="m764.8861,197.22442a3.07027,3.07027 0 0 0 -0.007,-1.32893a1.96024,1.96024 0 0 1 -0.34427,0.74806c-0.21285,0.26982 0.04921,0.44431 0.35127,0.58086z"/>
     <path stroke="null" id="svg_42" d="m713.8637,195.26679c-0.01443,0.07769 -0.03086,0.15443 -0.03936,0.23506a7.79577,7.79577 0 0 0 0.13273,1.82679a6.42873,6.42873 0 0 0 -0.09336,-2.06186z"/>
     <path stroke="null" id="svg_41" d="m716.62268,186.97549a9.85673,9.85673 0 0 1 -1.14016,1.70336l1.09686,-0.7552a7.60014,7.60014 0 0 1 0.0433,-0.94815z"/>
    </g>
    <path stroke="null" id="svg_39" fill="#ffffff" d="m712.83139,200.99551s-4.10058,-18.33095 -2.79585,-21.27083c0,0 -3.54141,-7.26321 -3.54141,-8.99254a17.17263,17.17263 0 0 0 -2.60946,-8.12788c-1.8639,-2.93987 -3.91419,-16.60162 7.26921,-19.88736s19.75734,-6.22563 21.06207,-8.47374s20.50289,-0.86467 25.72181,7.78201s8.57394,6.91735 8.57394,6.91735s8.01477,5.01507 8.01477,9.51134s-2.42307,6.74441 0,7.78201s0.55917,19.71442 -10.06506,20.23322l-0.93195,9.85722s-28.51767,-36.14312 -50.69808,4.6692z"/>
    <path stroke="null" id="svg_38" opacity="0.1" d="m714.05265,146.28898s-2.46349,14.44117 2.03875,19.2832l-2.03875,-19.2832z"/>
    <path stroke="null" id="svg_37" opacity="0.1" d="m725.60558,142.97601s-6.28615,15.46055 -4.75709,18.43369l4.75709,-18.43369z"/>
    <path stroke="null" id="svg_36" opacity="0.1" d="m731.0423,138.04903s-4.2474,20.13268 -2.20865,21.7467l2.20865,-21.7467z"/>
    <path stroke="null" id="svg_35" opacity="0.1" d="m738.34779,143.4857s-5.26677,12.9121 -3.14307,14.696l3.14307,-14.696z"/>
    <path stroke="null" id="svg_34" opacity="0.1" d="m748.28671,145.01477s-6.20121,10.53355 -4.92699,12.40241l4.92699,-12.40241z"/>
    <path stroke="null" id="svg_33" opacity="0.1" d="m761.02891,155.29348s-6.62595,1.78391 -5.26678,3.90761l5.26678,-3.90761z"/>
    <path stroke="null" id="svg_32" opacity="0.1" d="m767.31506,166.2518s-5.94636,2.88824 -4.84204,4.4173l4.84204,-4.4173z"/>
    <path stroke="null" id="svg_31" opacity="0.1" d="m710.03555,179.72468s37.98054,-15.42733 54.42587,6.74441c-0.00001,0.00003 -19.96152,-16.972 -54.42587,-6.74441z"/>
    <polygon stroke="null" id="svg_30" fill="#53526b" points="696.3104907724191,306.48619749723 701.6027748206398,301.13271176946 716.5654831571155,315.9230245073268 711.2731991088949,321.2774107164296 697.5123538919725,307.6749881119176 696.3104907724191,306.48619749723 "/>
    <path stroke="null" id="svg_29" fill="#dfe6f5" d="m661.59177,272.16616s23.16281,1.97107 44.72093,26.2362l-8.98529,9.08957l-35.73564,-35.32577z"/>
    <path stroke="null" id="svg_28" fill="#fdc2cc" d="m732.81695,316.42764s-22.26288,-8.11568 -24.45056,-10.05639s-15.0564,9.35068 0.64343,24.6999c0,0 19.19783,5.46926 24.3336,0s-0.52647,-14.64351 -0.52647,-14.64351z"/>
   </g>
  </g>
 </g>
</svg>